<?xml version="1.0" encoding="UTF-8"?>
<svg version="1.1" xmlns="http://www.w3.org/2000/svg" width="40" height="40">
<path d="M0 0 C1.73152958 1.07955259 3.46011684 2.16382512 5.1875 3.25 C6.15042969 3.85328125 7.11335938 4.4565625 8.10546875 5.078125 C10.87405327 6.91637545 13.43957951 8.88425949 16 11 C14.68 11 13.36 11 12 11 C12.11341637 13.31309705 12.24103807 15.62550185 12.375 17.9375 C12.44460937 19.22527344 12.51421875 20.51304688 12.5859375 21.83984375 C12.72257812 22.88269531 12.85921875 23.92554688 13 25 C13.66 25.33 14.32 25.66 15 26 C15 28.31 15 30.62 15 33 C5.43 33 -4.14 33 -14 33 C-14 30.69 -14 28.38 -14 26 C-13.34 25.67 -12.68 25.34 -12 25 C-12 22.69 -12 20.38 -12 18 C-11.34 18 -10.68 18 -10 18 C-10 15.69 -10 13.38 -10 11 C-11.65 11 -13.3 11 -15 11 C-10.22276042 7.01896702 -5.11066313 3.53280791 0 0 Z " fill="#8B4FFF" transform="translate(20,0)"/>
<path d="M0 0 C1.73152958 1.07955259 3.46011684 2.16382512 5.1875 3.25 C6.15042969 3.85328125 7.11335938 4.4565625 8.10546875 5.078125 C10.87405327 6.91637545 13.43957951 8.88425949 16 11 C14.68 11 13.36 11 12 11 C12.020625 12.134375 12.04125 13.26875 12.0625 14.4375 C12 18 12 18 11 19 C9.43827255 19.08685603 7.87270656 19.10702219 6.30859375 19.09765625 C5.36435547 19.09443359 4.42011719 19.09121094 3.44726562 19.08789062 C2.45404297 19.07951172 1.46082031 19.07113281 0.4375 19.0625 C-0.55958984 19.05798828 -1.55667969 19.05347656 -2.58398438 19.04882812 C-5.05604849 19.03700007 -7.52799518 19.02051849 -10 19 C-10 16.36 -10 13.72 -10 11 C-11.65 11 -13.3 11 -15 11 C-10.22276042 7.01896702 -5.11066313 3.53280791 0 0 Z " fill="#FFFFFF" transform="translate(20,0)"/>
<path d="M0 0 C8.25 0 16.5 0 25 0 C25 2.31 25 4.62 25 7 C16.75 7 8.5 7 0 7 C0 4.69 0 2.38 0 0 Z " fill="#4E80FF" transform="translate(8,18)"/>
<path d="M0 0 C1.73152958 1.07955259 3.46011684 2.16382512 5.1875 3.25 C6.15042969 3.85328125 7.11335938 4.4565625 8.10546875 5.078125 C10.84597665 6.89773348 13.43126697 8.94501358 16 11 C5.77 11 -4.46 11 -15 11 C-11.59623871 8.27699097 -8.25686804 5.72476184 -4.6875 3.25 C-3.80449219 2.63640625 -2.92148437 2.0228125 -2.01171875 1.390625 C-1.34785156 0.93171875 -0.68398438 0.4728125 0 0 Z " fill="#8A4EFF" transform="translate(20,0)"/>
</svg>
