<?xml version="1.0" encoding="UTF-8"?>
<svg version="1.1" xmlns="http://www.w3.org/2000/svg" width="190" height="40">
<path d="M0 0 C1.73152958 1.07955259 3.46011684 2.16382512 5.1875 3.25 C6.15042969 3.85328125 7.11335938 4.4565625 8.10546875 5.078125 C10.87405327 6.91637545 13.43957951 8.88425949 16 11 C14.68 11 13.36 11 12 11 C12.11341637 13.31309705 12.24103807 15.62550185 12.375 17.9375 C12.44460937 19.22527344 12.51421875 20.51304688 12.5859375 21.83984375 C12.72257812 22.88269531 12.85921875 23.92554688 13 25 C13.66 25.33 14.32 25.66 15 26 C15 28.31 15 30.62 15 33 C5.43 33 -4.14 33 -14 33 C-14 30.69 -14 28.38 -14 26 C-13.34 25.67 -12.68 25.34 -12 25 C-12 22.69 -12 20.38 -12 18 C-11.34 18 -10.68 18 -10 18 C-10 15.69 -10 13.38 -10 11 C-11.65 11 -13.3 11 -15 11 C-10.22276042 7.01896702 -5.11066313 3.53280791 0 0 Z " fill="#8B4FFF" transform="translate(20,0)"/>
<path d="M0 0 C1.73152958 1.07955259 3.46011684 2.16382512 5.1875 3.25 C6.15042969 3.85328125 7.11335938 4.4565625 8.10546875 5.078125 C10.87405327 6.91637545 13.43957951 8.88425949 16 11 C14.68 11 13.36 11 12 11 C12.020625 12.134375 12.04125 13.26875 12.0625 14.4375 C12 18 12 18 11 19 C9.43827255 19.08685603 7.87270656 19.10702219 6.30859375 19.09765625 C5.36435547 19.09443359 4.42011719 19.09121094 3.44726562 19.08789062 C2.45404297 19.07951172 1.46082031 19.07113281 0.4375 19.0625 C-0.55958984 19.05798828 -1.55667969 19.05347656 -2.58398438 19.04882812 C-5.05604849 19.03700007 -7.52799518 19.02051849 -10 19 C-10 16.36 -10 13.72 -10 11 C-11.65 11 -13.3 11 -15 11 C-10.22276042 7.01896702 -5.11066313 3.53280791 0 0 Z " fill="#FFFFFF" transform="translate(20,0)"/>
<path d="M0 0 C0 1.32 0 2.64 0 4 C-1.98 4 -3.96 4 -6 4 C-6.1546875 4.99 -6.1546875 4.99 -6.3125 6 C-7.19213564 9.83841009 -8.56969896 13.33096691 -10 17 C-12.31 17 -14.62 17 -17 17 C-17.8394882 14.89828133 -18.67139656 12.79353375 -19.5 10.6875 C-19.9640625 9.51574219 -20.428125 8.34398437 -20.90625 7.13671875 C-22 4 -22 4 -22 1 C-20.35 1 -18.7 1 -17 1 C-16.01 3.31 -15.02 5.62 -14 8 C-11.82566857 6.13254668 -11.82566857 6.13254668 -11.1875 3.4375 C-10 1 -10 1 -7.6875 0.1875 C-5.11087269 0.0077353 -2.58174625 -0.07376418 0 0 Z " fill="#FFFFFF" transform="translate(137,12)"/>
<path d="M0 0 C8.25 0 16.5 0 25 0 C25 2.31 25 4.62 25 7 C16.75 7 8.5 7 0 7 C0 4.69 0 2.38 0 0 Z " fill="#4E80FF" transform="translate(8,18)"/>
<path d="M0 0 C1.73152958 1.07955259 3.46011684 2.16382512 5.1875 3.25 C6.15042969 3.85328125 7.11335938 4.4565625 8.10546875 5.078125 C10.84597665 6.89773348 13.43126697 8.94501358 16 11 C5.77 11 -4.46 11 -15 11 C-11.59623871 8.27699097 -8.25686804 5.72476184 -4.6875 3.25 C-3.80449219 2.63640625 -2.92148437 2.0228125 -2.01171875 1.390625 C-1.34785156 0.93171875 -0.68398438 0.4728125 0 0 Z " fill="#8A4EFF" transform="translate(20,0)"/>
<path d="M0 0 C1.62418745 -0.08090971 3.24951745 -0.13914995 4.875 -0.1875 C5.77992187 -0.22230469 6.68484375 -0.25710937 7.6171875 -0.29296875 C8.79667969 -0.14794922 8.79667969 -0.14794922 10 0 C12.80163026 4.2024454 12.14489712 7.00104935 12 12 C8.04 12 4.08 12 0 12 C-2 7 -2 7 -1.125 4.875 C-0.75375 4.25625 -0.3825 3.6375 0 3 C0 2.01 0 1.02 0 0 Z M5 6 C4.01 7.485 4.01 7.485 3 9 C4.32 8.67 5.64 8.34 7 8 C7 7.34 7 6.68 7 6 C6.34 6 5.68 6 5 6 Z " fill="#FFFFFF" transform="translate(76,17)"/>
<path d="M0 0 C4.29687305 0.06157939 4.29687305 0.06157939 6.75 1.9375 C7.9202214 5.11381522 7.53712834 7.08496897 6.625 10.3125 C4.2329161 12.7045839 3.47361114 12.65826948 0.1875 12.75 C-4.02966127 12.6479719 -4.02966127 12.6479719 -6.5625 10.1875 C-7.59698955 6.52699851 -6.92785776 4.72878706 -5.375 1.3125 C-3.79602167 -0.26647833 -2.18137428 0.06706491 0 0 Z M-1.375 3.3125 C-1.375 5.2925 -1.375 7.2725 -1.375 9.3125 C-0.385 9.3125 0.605 9.3125 1.625 9.3125 C2.63611093 6.26336772 2.63611093 6.26336772 1.625 3.3125 C0.635 3.3125 -0.355 3.3125 -1.375 3.3125 Z " fill="#FFFFFF" transform="translate(167.375,16.6875)"/>
<path d="M0 0 C0 1.32 0 2.64 0 4 C-1.134375 3.979375 -2.26875 3.95875 -3.4375 3.9375 C-6.81575674 3.58422523 -6.81575674 3.58422523 -8 5 C-8.16666667 8 -8.16666667 8 -8 11 C-6.81575674 12.41577477 -6.81575674 12.41577477 -3.4375 12.0625 C-1.7359375 12.0315625 -1.7359375 12.0315625 0 12 C0 13.32 0 14.64 0 16 C-8.92674617 16.6132879 -8.92674617 16.6132879 -12.625 14.5 C-14.58535075 10.93572591 -14.76550426 7.9741072 -14 4 C-10.9733152 -1.50306327 -5.53719757 -0.38041815 0 0 Z " fill="#FFFFFF" transform="translate(65,13)"/>
<path d="M0 0 C9.27734375 -0.09765625 9.27734375 -0.09765625 12 0 C13 1 13 1 13.09765625 3.50390625 C13.08605469 4.51324219 13.07445312 5.52257812 13.0625 6.5625 C13.05347656 7.57441406 13.04445312 8.58632813 13.03515625 9.62890625 C13.02355469 10.41136719 13.01195312 11.19382812 13 12 C11.68 12 10.36 12 9 12 C8.67 9.36 8.34 6.72 8 4 C7.34 4 6.68 4 6 4 C5.67 6.64 5.34 9.28 5 12 C3.35 12 1.7 12 0 12 C0 8.04 0 4.08 0 0 Z " fill="#FFFFFF" transform="translate(176,17)"/>
<path d="M0 0 C1.37478516 0.01740234 1.37478516 0.01740234 2.77734375 0.03515625 C3.69644531 0.04417969 4.61554688 0.05320312 5.5625 0.0625 C6.27277344 0.07410156 6.98304688 0.08570312 7.71484375 0.09765625 C7.71484375 1.08765625 7.71484375 2.07765625 7.71484375 3.09765625 C6.72484375 3.59265625 6.72484375 3.59265625 5.71484375 4.09765625 C6.70484375 5.08765625 7.69484375 6.07765625 8.71484375 7.09765625 C8.05484375 8.74765625 7.39484375 10.39765625 6.71484375 12.09765625 C3.41484375 12.09765625 0.11484375 12.09765625 -3.28515625 12.09765625 C-3.28515625 11.10765625 -3.28515625 10.11765625 -3.28515625 9.09765625 C-2.62515625 8.76765625 -1.96515625 8.43765625 -1.28515625 8.09765625 C-1.94515625 7.76765625 -2.60515625 7.43765625 -3.28515625 7.09765625 C-3.32769981 5.09810879 -3.32596408 3.09723989 -3.28515625 1.09765625 C-2.28515625 0.09765625 -2.28515625 0.09765625 0 0 Z " fill="#FFFFFF" transform="translate(143.28515625,16.90234375)"/>
<path d="M0 0 C1.37478516 0.01740234 1.37478516 0.01740234 2.77734375 0.03515625 C3.69644531 0.04417969 4.61554688 0.05320312 5.5625 0.0625 C6.27277344 0.07410156 6.98304687 0.08570312 7.71484375 0.09765625 C7.71484375 1.08765625 7.71484375 2.07765625 7.71484375 3.09765625 C6.72484375 3.59265625 6.72484375 3.59265625 5.71484375 4.09765625 C6.70484375 5.08765625 7.69484375 6.07765625 8.71484375 7.09765625 C8.05484375 8.74765625 7.39484375 10.39765625 6.71484375 12.09765625 C3.41484375 12.09765625 0.11484375 12.09765625 -3.28515625 12.09765625 C-3.28515625 11.10765625 -3.28515625 10.11765625 -3.28515625 9.09765625 C-2.62515625 8.76765625 -1.96515625 8.43765625 -1.28515625 8.09765625 C-1.94515625 7.76765625 -2.60515625 7.43765625 -3.28515625 7.09765625 C-3.32769981 5.09810879 -3.32596408 3.09723989 -3.28515625 1.09765625 C-2.28515625 0.09765625 -2.28515625 0.09765625 0 0 Z " fill="#FFFFFF" transform="translate(106.28515625,16.90234375)"/>
<path d="M0 0 C1.37478516 0.01740234 1.37478516 0.01740234 2.77734375 0.03515625 C3.69644531 0.04417969 4.61554688 0.05320312 5.5625 0.0625 C6.27277344 0.07410156 6.98304687 0.08570312 7.71484375 0.09765625 C7.71484375 1.08765625 7.71484375 2.07765625 7.71484375 3.09765625 C6.72484375 3.59265625 6.72484375 3.59265625 5.71484375 4.09765625 C6.70484375 5.08765625 7.69484375 6.07765625 8.71484375 7.09765625 C8.05484375 8.74765625 7.39484375 10.39765625 6.71484375 12.09765625 C3.41484375 12.09765625 0.11484375 12.09765625 -3.28515625 12.09765625 C-3.28515625 11.10765625 -3.28515625 10.11765625 -3.28515625 9.09765625 C-2.62515625 8.76765625 -1.96515625 8.43765625 -1.28515625 8.09765625 C-1.94515625 7.76765625 -2.60515625 7.43765625 -3.28515625 7.09765625 C-3.32769981 5.09810879 -3.32596408 3.09723989 -3.28515625 1.09765625 C-2.28515625 0.09765625 -2.28515625 0.09765625 0 0 Z " fill="#FFFFFF" transform="translate(93.28515625,16.90234375)"/>
<path d="M0 0 C1.65 0 3.3 0 5 0 C5 5.61 5 11.22 5 17 C3.35 17 1.7 17 0 17 C0 11.39 0 5.78 0 0 Z " fill="#FFFFFF" transform="translate(67,12)"/>
<path d="M0 0 C1.65 0 3.3 0 5 0 C5 3.96 5 7.92 5 12 C3.35 12 1.7 12 0 12 C0 8.04 0 4.08 0 0 Z " fill="#FFFFFF" transform="translate(153,17)"/>
<path d="M0 0 C1.65 0 3.3 0 5 0 C5 3.96 5 7.92 5 12 C3.35 12 1.7 12 0 12 C0 8.04 0 4.08 0 0 Z " fill="#FFFFFF" transform="translate(132,17)"/>
<path d="M0 0 C1.65 0 3.3 0 5 0 C5 1.32 5 2.64 5 4 C3.35 4 1.7 4 0 4 C0 2.68 0 1.36 0 0 Z " fill="#FFFFFF" transform="translate(153,12)"/>
</svg>
