<?xml version="1.0" encoding="UTF-8"?>
<svg version="1.1" xmlns="http://www.w3.org/2000/svg" width="190" height="40">
<path d="M0 0 C0 1.65 0 3.3 0 5 C-2.64 4.67 -5.28 4.34 -8 4 C-7.67 4.66 -7.34 5.32 -7 6 C-3.97065509 6.65772428 -3.97065509 6.65772428 -1 7 C-1 7.99 -1 8.98 -1 10 C-4 12 -4 12 -7.5 11.4375 C-8.655 11.293125 -9.81 11.14875 -11 11 C-12.8354799 12.33378575 -12.8354799 12.33378575 -14 14 C-14.66 14 -15.32 14 -16 14 C-16 16.64 -16 19.28 -16 22 C-14.35 22 -12.7 22 -11 22 C-12.32 20.68 -13.64 19.36 -15 18 C-14.34 16.68 -13.68 15.36 -13 14 C-12.2575 14.185625 -11.515 14.37125 -10.75 14.5625 C-8.05009037 14.99203108 -6.55368923 14.85122974 -4 14 C-3.63076923 18.55384615 -3.63076923 18.55384615 -5.5 20.8125 C-5.995 21.204375 -6.49 21.59625 -7 22 C-5.68 21.67 -4.36 21.34 -3 21 C-2.67 18.03 -2.34 15.06 -2 12 C-0.35 11.34 1.3 10.68 3 10 C3 8.35 3 6.7 3 5 C4.32 5.33 5.64 5.66 7 6 C7 7.32 7 8.64 7 10 C8.32 10 9.64 10 11 10 C10.87822312 8.08533633 10.87822312 8.08533633 10 6 C9.154375 5.525625 8.30875 5.05125 7.4375 4.5625 C6.633125 4.046875 5.82875 3.53125 5 3 C4.6875 0.3125 4.6875 0.3125 5 -2 C9.39527596 -1.09566225 12.8755217 0.74641102 16 4 C16.4375 7.3125 16.4375 7.3125 16 10 C17.32 10.66 18.64 11.32 20 12 C20.08078641 14.12438339 20.13909141 16.2496323 20.1875 18.375 C20.23970703 20.15003906 20.23970703 20.15003906 20.29296875 21.9609375 C20.19628906 22.96382812 20.09960938 23.96671875 20 25 C19.01 25.66 18.02 26.32 17 27 C16.95875 27.928125 16.9175 28.85625 16.875 29.8125 C15.82842399 33.62502688 15.05271861 33.986389 11.75 35.9375 C8.92849093 37.48554273 7.55199092 38.06375334 4.328125 37.69140625 C2 37 2 37 0 36 C0 34.35 0 32.7 0 31 C3.465 31.495 3.465 31.495 7 32 C7 31.34 7 30.68 7 30 C5.02 29.67 3.04 29.34 1 29 C1 28.01 1 27.02 1 26 C4 24 4 24 7.4375 24.5625 C10.86595434 25.27151451 10.86595434 25.27151451 13.375 24.0625 C15.87195421 20.89328888 15.73841326 17.98919779 16 14 C14.35 14 12.7 14 11 14 C12.32 15.32 13.64 16.64 15 18 C14.34 19.32 13.68 20.64 13 22 C12.2575 21.814375 11.515 21.62875 10.75 21.4375 C8.05009037 21.00796892 6.55368923 21.14877026 4 22 C3.63076923 17.44615385 3.63076923 17.44615385 5.5 15.1875 C5.995 14.795625 6.49 14.40375 7 14 C5.68 14.33 4.36 14.66 3 15 C2.67 17.97 2.34 20.94 2 24 C0.35 24.66 -1.3 25.32 -3 26 C-3 27.65 -3 29.3 -3 31 C-4.32 30.67 -5.64 30.34 -7 30 C-7 28.68 -7 27.36 -7 26 C-8.32 26 -9.64 26 -11 26 C-10.87822312 27.91466367 -10.87822312 27.91466367 -10 30 C-9.154375 30.474375 -8.30875 30.94875 -7.4375 31.4375 C-6.633125 31.953125 -5.82875 32.46875 -5 33 C-4.6875 35.6875 -4.6875 35.6875 -5 38 C-9.39527596 37.09566225 -12.8755217 35.25358898 -16 32 C-16.4375 28.6875 -16.4375 28.6875 -16 26 C-17.32 25.34 -18.64 24.68 -20 24 C-20.08078641 21.87561661 -20.13909141 19.7503677 -20.1875 17.625 C-20.22230469 16.44164063 -20.25710937 15.25828125 -20.29296875 14.0390625 C-20.19628906 13.03617188 -20.09960938 12.03328125 -20 11 C-19.01 10.34 -18.02 9.68 -17 9 C-16.95875 8.071875 -16.9175 7.14375 -16.875 6.1875 C-15.82842399 2.37497312 -15.05271861 2.013611 -11.75 0.0625 C-7.37647141 -2.33707022 -4.45168217 -2.22584108 0 0 Z " fill="#AC68FF" transform="translate(20,2)"/>
<path d="M0 0 C12.45975131 -0.4934555 12.45975131 -0.4934555 14.984375 1.8125 C16 4 16 4 14.9375 7.25 C13.77209235 11.91163059 14.75669421 13.48601937 17.0546875 17.49609375 C17.36664063 17.99238281 17.67859375 18.48867188 18 19 C15.69 19 13.38 19 11 19 C10.34 17.02 9.68 15.04 9 13 C8.01 13 7.02 13 6 13 C6 14.98 6 16.96 6 19 C4.02 19 2.04 19 0 19 C0 12.73 0 6.46 0 0 Z M6 3 C6 4.98 6 6.96 6 9 C7.32 8.34 8.64 7.68 10 7 C9.67 6.01 9.34 5.02 9 4 C8.01 3.67 7.02 3.34 6 3 Z " fill="#FFFFFF" transform="translate(159,11)"/>
<path d="M0 0 C2.64 0 5.28 0 8 0 C9.00605593 2.60197202 10.00502525 5.20629362 11 7.8125 C11.42925781 8.91948242 11.42925781 8.91948242 11.8671875 10.04882812 C12.13789063 10.76103516 12.40859375 11.47324219 12.6875 12.20703125 C12.93886719 12.8616333 13.19023437 13.51623535 13.44921875 14.19067383 C14 16 14 16 14 19 C12.02 19 10.04 19 8 19 C7.67 18.01 7.34 17.02 7 16 C5.02 16 3.04 16 1 16 C0.67 16.99 0.34 17.98 0 19 C-1.98 19 -3.96 19 -6 19 C-5.28739906 14.71620357 -3.93078264 10.74906147 -2.4375 6.6875 C-2.20353516 6.04232422 -1.96957031 5.39714844 -1.72851562 4.73242188 C-1.15552993 3.15378781 -0.57820536 1.57672974 0 0 Z M3 8 C2.67 9.32 2.34 10.64 2 12 C3.32 12 4.64 12 6 12 C5.67 10.68 5.34 9.36 5 8 C4.34 8 3.68 8 3 8 Z " fill="#FFFFFF" transform="translate(143,11)"/>
<path d="M0 0 C2.64 0 5.28 0 8 0 C9.00605593 2.60197202 10.00502525 5.20629362 11 7.8125 C11.42925781 8.91948242 11.42925781 8.91948242 11.8671875 10.04882812 C12.13789062 10.76103516 12.40859375 11.47324219 12.6875 12.20703125 C12.93886719 12.8616333 13.19023438 13.51623535 13.44921875 14.19067383 C14 16 14 16 14 19 C12.02 19 10.04 19 8 19 C7.67 18.01 7.34 17.02 7 16 C5.02 16 3.04 16 1 16 C0.67 16.99 0.34 17.98 0 19 C-1.98 19 -3.96 19 -6 19 C-5.28739906 14.71620357 -3.93078264 10.74906147 -2.4375 6.6875 C-2.20353516 6.04232422 -1.96957031 5.39714844 -1.72851562 4.73242188 C-1.15552993 3.15378781 -0.57820536 1.57672974 0 0 Z M3 8 C2.67 9.32 2.34 10.64 2 12 C3.32 12 4.64 12 6 12 C5.67 10.68 5.34 9.36 5 8 C4.34 8 3.68 8 3 8 Z " fill="#FFFFFF" transform="translate(104,11)"/>
<path d="M0 0 C1.98 0 3.96 0 6 0 C6.50615298 1.26839526 7.00469099 2.53983102 7.5 3.8125 C7.91765625 4.87404297 7.91765625 4.87404297 8.34375 5.95703125 C9 8 9 8 9 11 C9.66 11 10.32 11 11 11 C11.12375 10.113125 11.2475 9.22625 11.375 8.3125 C11.94412736 5.29612498 12.76614436 2.79673946 14 0 C15.98 0 17.96 0 20 0 C19.39124245 4.60416626 18.15277044 8.56483324 16.4375 12.875 C15.98246094 14.02742188 15.52742188 15.17984375 15.05859375 16.3671875 C14.70925781 17.23601563 14.35992187 18.10484375 14 19 C11.36 19 8.72 19 6 19 C4.99394407 16.39802798 3.99497475 13.79370638 3 11.1875 C2.57074219 10.08051758 2.57074219 10.08051758 2.1328125 8.95117188 C1.86210938 8.23896484 1.59140625 7.52675781 1.3125 6.79296875 C1.06113281 6.1383667 0.80976562 5.48376465 0.55078125 4.80932617 C0 3 0 3 0 0 Z " fill="#FFFFFF" transform="translate(69,11)"/>
<path d="M0 0 C0.33 1.65 0.66 3.3 1 5 C0.36191406 4.98839844 -0.27617187 4.97679687 -0.93359375 4.96484375 C-1.75988281 4.95582031 -2.58617187 4.94679688 -3.4375 4.9375 C-4.26121094 4.92589844 -5.08492187 4.91429687 -5.93359375 4.90234375 C-7.99163938 4.76732652 -7.99163938 4.76732652 -9 6 C-9.16666667 9.5 -9.16666667 9.5 -9 13 C-7.99163938 14.23267348 -7.99163938 14.23267348 -5.93359375 14.09765625 C-5.10988281 14.08605469 -4.28617188 14.07445312 -3.4375 14.0625 C-2.61121094 14.05347656 -1.78492188 14.04445313 -0.93359375 14.03515625 C-0.29550781 14.02355469 0.34257812 14.01195312 1 14 C0.67 15.65 0.34 17.3 0 19 C-9.7374975 19.76740348 -9.7374975 19.76740348 -14.1875 17.0625 C-16.6415706 12.91596692 -17.01140892 9.70007676 -16 5 C-12.19485537 -1.42938231 -6.68959189 -0.52720076 0 0 Z " fill="#FFFFFF" transform="translate(135,11)"/>
<path d="M0 0 C0.33 1.65 0.66 3.3 1 5 C0.36191406 4.98839844 -0.27617188 4.97679687 -0.93359375 4.96484375 C-1.75988281 4.95582031 -2.58617188 4.94679688 -3.4375 4.9375 C-4.26121094 4.92589844 -5.08492187 4.91429687 -5.93359375 4.90234375 C-7.99163938 4.76732652 -7.99163938 4.76732652 -9 6 C-9.16666667 9.5 -9.16666667 9.5 -9 13 C-7.99163938 14.23267348 -7.99163938 14.23267348 -5.93359375 14.09765625 C-5.10988281 14.08605469 -4.28617188 14.07445312 -3.4375 14.0625 C-2.61121094 14.05347656 -1.78492187 14.04445313 -0.93359375 14.03515625 C-0.29550781 14.02355469 0.34257813 14.01195312 1 14 C0.67 15.65 0.34 17.3 0 19 C-9.7374975 19.76740348 -9.7374975 19.76740348 -14.1875 17.0625 C-16.6415706 12.91596692 -17.01140892 9.70007676 -16 5 C-12.19485537 -1.42938231 -6.68959189 -0.52720076 0 0 Z " fill="#FFFFFF" transform="translate(67,11)"/>
<path d="M0 0 C2.97 0 5.94 0 9 0 C9 1.32 9 2.64 9 4 C6.03 4 3.06 4 0 4 C0 2.68 0 1.36 0 0 Z " fill="#FFFFFF" transform="translate(88,20)"/>
</svg>
